<svg xmlns="http://www.w3.org/2000/svg" viewBox="0 0 113.37 113.8"><defs><style>.cls-1{fill:#00a0d2;}</style></defs><g id="Layer_2" data-name="Layer 2"><g id="Layer_1-2" data-name="Layer 1"><path class="cls-1" d="M0,94.7c0-4.34,0-8.67,0-13a18,18,0,0,1,3-10C10.3,60.42,17.72,49.23,25.09,38,32,27.54,38.9,17.12,45.61,6.55A13,13,0,0,1,57.57,0c17.55.1,35.1,0,52.66,0,1.21,0,2.84-.2,3.12,1.15.18.87-.71,2.22-1.48,3q-14.94,14.76-30,29.42Q62.1,52.94,42.3,72.27,24.23,90,6.18,107.66a29.53,29.53,0,0,1-2.91,2.69c-.6.45-1.64.92-2.19.68a2.61,2.61,0,0,1-1-2C0,104.22,0,99.46,0,94.7Z"/><path class="cls-1" d="M6.89,113.2a15.53,15.53,0,0,1,1.21-1.35q26.82-24,53.67-47.91c1.89-1.69,2.86-1.62,4.68.22l38.8,39c2.42,2.43,4.91,4.81,7.25,7.32a3.17,3.17,0,0,1,.82,2.4c-.1.45-1.4.91-2.16.91q-37.74.08-75.47,0-13.32,0-26.64,0c-.66,0-1.32-.1-2-.15Z"/><path class="cls-1" d="M40.38.36C27,23,13.72,45.31.5,67.62l-.4-.09c0-.49-.09-1-.09-1.47Q0,34.91,0,3.77C0,1,1,0,3.68,0,14,0,24.29,0,34.59.05,36.37.06,38.15.23,40.38.36Z"/></g></g></svg>
